PathFileType	4	(X/Y/Z)	Walk8.trc
DataRate	CameraRate	NumFrames	NumMarkers	Units	OrigDataRate	OrigDataStartFrame	OrigNumFrames
200.000000	200.000000	9	61	mm	200.000000	713	754
Frame#	Times		RCAR		LUA1		LCAR		LFA1		LWRU		RTB3		RFHD		LElbow		RToe		LTH3		RTH2		RMT5		LWRR		LElbowM		RTB2		RMT1		LFHD		RPSI		STRN		RLFC		C7		RTH1		LTH4		RFA1		LTH2		T10		LLFC		RLMAL		LASI		CLAV		LPSI		RUA1		RBack		RTH3		RElbowM		LACR1		LCAL		RElbow		LMFC		LTB1		RWRR		RTH4		LTB2		LMT5		RTB4		RACR1		RMFC		LTB3		RMMAL		LTB4		LLMAL		LToe		RBHD		RWRU		RTB1		LTH1		LMMAL		LBHD		RCAL		LMT1		RASI
			X1	Y1	Z1	X2	Y2	Z2	X3	Y3	Z3	X4	Y4	Z4	X5	Y5	Z5	X6	Y6	Z6	X7	Y7	Z7	X8	Y8	Z8	X9	Y9	Z9	X10	Y10	Z10	X11	Y11	Z11	X12	Y12	Z12	X13	Y13	Z13	X14	Y14	Z14	X15	Y15	Z15	X16	Y16	Z16	X17	Y17	Z17	X18	Y18	Z18	X19	Y19	Z19	X20	Y20	Z20	X21	Y21	Z21	X22	Y22	Z22	X23	Y23	Z23	X24	Y24	Z24	X25	Y25	Z25	X26	Y26	Z26	X27	Y27	Z27	X28	Y28	Z28	X29	Y29	Z29	X30	Y30	Z30	X31	Y31	Z31	X32	Y32	Z32	X33	Y33	Z33	X34	Y34	Z34	X35	Y35	Z35	X36	Y36	Z36	X37	Y37	Z37	X38	Y38	Z38	X39	Y39	Z39	X40	Y40	Z40	X41	Y41	Z41	X42	Y42	Z42	X43	Y43	Z43	X44	Y44	Z44	X45	Y45	Z45	X46	Y46	Z46	X47	Y47	Z47	X48	Y48	Z48	X49	Y49	Z49	X50	Y50	Z50	X51	Y51	Z51	X52	Y52	Z52	X53	Y53	Z53	X54	Y54	Z54	X55	Y55	Z55	X56	Y56	Z56	X57	Y57	Z57	X58	Y58	Z58	X59	Y59	Z59	X60	Y60	Z60	X61	Y61	Z61

713	3.565	729.01	845.28	333.92	732.79	1311.2	-274.06	925.15	869.61	-286.4	788.69	1012.6	-309.66	845.45	890.92	-291.82	753.46	229.06	128.67	686.2	1654.3	-82.523	735.4	1155.3	-306.17	825	47.054	161.44	710.46	620.06	-146.13	856.95	744.23	192.31	728.58	49.177	197.09	900.67	916.79	-234.32	692.19	1137.3	-244.01	761.21	316	198.88	784.8	51.55	131.69	694.98	1663.5	59.181	565.17	1035.5	50.431	847.17	1268.8	-4.9175	820.65	523.71	212.76	665.61	1526.2	-9.6318	762.21	818.71	215.88	713.98	711.14	-163.2	643.25	1012.9	313.91	782.89	712.62	-141.47	564.41	1302.1	-8.0871	696.45	515.96	-132.38	657.54	129.67	157.7	775.33	1049.3	-132.37	798.53	1441.9	-6.7828	563.39	1033.7	-27.873	681.81	1311.8	252.34	585.75	1441.9	117.98	812.89	635.3	217.7	612.12	1146.1	207.35	741.87	1480.7	-173.31	568.8	30.364	-36.557	629.23	1161.9	284.68	712.17	522.24	-3.5081	731.66	375.85	-55.605	734.41	884.26	279.52	791.37	727.13	222.32	686.28	291.39	-122	722.06	21.653	-123.09	797.87	309.64	138.57	738.38	1480.1	155.43	854.54	533.34	84.839	690.85	194.19	-47.696	711.66	141.58	87.785	712.45	288.19	-50.597	625.93	70.935	-82.991	827.5	30.933	-59.685	864.78	1701.7	-51.841	671.15	878.87	320.93	839.58	392.61	150.8	721.14	802.62	-179.16	659.07	91.636	-3.7737	869.32	1705.3	24.537	604.93	110.22	97.069	775.11	39.723	-41.653	777.9	1055.9	150.43
714	3.57	730.04	844.9	333.65	738.58	1311.2	-274.24	935.54	872.03	-286.51	797.35	1013.3	-309.83	855.56	892.25	-291.66	767.3	227.47	128.7	691.18	1654.1	-82.676	742.45	1155.4	-306.58	843.35	47.481	162.31	712.45	620.02	-146.1	862.62	744.9	191.61	746.78	47.557	197.82	910.63	918.99	-234.44	699.43	1137	-244.38	772.79	314.87	198.75	803.07	50.987	132.44	699.97	1663.3	59.034	569.76	1035.5	50.575	851.97	1268.5	-5.0281	827.91	524.05	212.2	670.64	1526.1	-9.7299	767.63	818.87	215.92	716.6	711.07	-163.09	645.38	1013.1	313.44	785.55	712.02	-141.46	569.24	1302	-8.0228	697.75	515.92	-132.34	673.76	125.88	157.9	779.78	1049.1	-132.48	803.47	1441.6	-6.8538	567.9	1033.7	-27.663	685.71	1311.9	252.25	590.68	1442	117.79	819.36	635.76	217.29	615.45	1146.6	206.81	746.89	1480.5	-173.34	568.82	30.431	-36.517	632.38	1162.2	284.21	713.67	522.07	-3.4566	732.52	375.66	-55.569	735.92	883.9	279.33	797.33	727.45	222.04	686.89	291.35	-121.97	722.04	21.639	-123.11	809.69	309.16	138.4	743.35	1480	155.43	860.82	533.9	84.007	691.23	194.11	-47.697	727.78	138.9	87.918	713.06	288.07	-50.567	625.96	71.016	-82.969	827.51	30.912	-59.673	869.77	1701.5	-52.014	672.43	878.82	320.4	849.4	393.12	150.42	724.4	802.53	-179.11	659.14	91.653	-3.762	874.29	1705.1	24.373	621.78	104.73	97.233	775.1	39.714	-41.663	782.57	1055.6	150.38
715	3.575	731.16	844.51	333.41	744.34	1311.3	-274.41	945.84	874.46	-286.59	805.96	1013.9	-309.97	865.6	893.58	-291.46	781.17	225.93	128.76	696.16	1653.9	-82.808	749.44	1155.5	-306.98	861.71	48.063	163.17	714.46	619.97	-146.07	868.2	745.48	190.91	765.06	46.074	198.59	920.49	921.19	-234.53	706.62	1136.6	-244.74	784.35	313.74	198.63	821.38	50.562	133.22	704.97	1663.1	58.91	574.36	1035.5	50.733	856.77	1268.2	-5.1135	835.02	524.31	211.61	675.67	1526	-9.8066	772.99	818.97	215.94	719.25	710.99	-162.97	647.6	1013.3	313.01	788.23	711.41	-141.44	574.08	1302	-7.9389	699.08	515.89	-132.3	690.11	122.16	158.17	784.2	1048.8	-132.54	808.41	1441.4	-6.9021	572.41	1033.7	-27.451	689.66	1311.9	252.18	595.64	1442	117.62	825.69	636.14	216.85	618.84	1146.9	206.32	751.91	1480.3	-173.35	568.85	30.498	-36.476	635.6	1162.4	283.79	715.21	521.9	-3.4077	733.4	375.47	-55.537	737.51	883.54	279.19	803.19	727.7	221.74	687.51	291.31	-121.94	722.03	21.627	-123.14	821.46	308.7	138.24	748.35	1479.9	155.44	866.95	534.36	83.156	691.62	194.04	-47.698	743.97	136.3	88.104	713.68	287.95	-50.539	625.99	71.102	-82.946	827.53	30.888	-59.661	874.77	1701.3	-52.165	673.82	878.77	319.91	859.11	393.62	150.03	727.68	802.42	-179.04	659.21	91.668	-3.7484	879.27	1704.9	24.228	638.79	99.321	97.489	775.1	39.705	-41.673	787.24	1055.1	150.36
716	3.58	732.4	844.13	333.21	750.07	1311.3	-274.56	956.05	876.9	-286.64	814.5	1014.5	-310.1	875.56	894.91	-291.24	795.05	224.45	128.86	701.16	1653.6	-82.918	756.39	1155.5	-307.37	880.08	48.811	164.01	716.5	619.91	-146.04	873.7	745.94	190.2	783.42	44.742	199.39	930.27	923.41	-234.6	713.76	1136.3	-245.08	795.9	312.63	198.49	839.7	50.29	134	709.98	1662.8	58.809	578.97	1035.4	50.906	861.57	1267.8	-5.1739	841.98	524.5	210.99	680.72	1525.8	-9.8618	778.3	819.01	215.95	721.92	710.89	-162.85	649.92	1013.5	312.63	790.92	710.8	-141.42	578.91	1301.9	-7.8374	700.43	515.85	-132.26	706.56	118.54	158.51	788.61	1048.5	-132.54	813.36	1441.1	-6.9281	576.93	1033.6	-27.235	693.68	1311.9	252.14	600.61	1442	117.49	831.86	636.43	216.39	622.3	1147.3	205.87	756.95	1480.1	-173.34	568.88	30.568	-36.433	638.89	1162.7	283.41	716.78	521.74	-3.3614	734.31	375.28	-55.507	739.21	883.18	279.08	808.95	727.88	221.42	688.15	291.26	-121.9	722.01	21.619	-123.16	833.19	308.26	138.09	753.36	1479.7	155.47	872.93	534.72	82.289	692.02	193.97	-47.697	760.21	133.81	88.343	714.33	287.82	-50.512	626.02	71.192	-82.922	827.55	30.863	-59.649	879.78	1701.1	-52.296	675.32	878.73	319.49	868.7	394.1	149.61	730.96	802.29	-178.96	659.28	91.684	-3.7328	884.26	1704.6	24.104	655.95	94.018	97.842	775.09	39.697	-41.684	791.91	1054.7	150.38
717	3.585	733.75	843.75	333.04	755.78	1311.3	-274.68	966.16	879.34	-286.65	822.99	1015.1	-310.2	885.44	896.25	-290.98	808.92	223.04	128.97	706.16	1653.3	-83.007	763.28	1155.6	-307.74	898.43	49.735	164.82	718.57	619.84	-146	879.11	746.29	189.49	801.83	43.572	200.21	939.95	925.62	-234.64	720.85	1136	-245.41	807.42	311.53	198.36	858.02	50.181	134.77	715.01	1662.5	58.73	583.58	1035.3	51.097	866.38	1267.5	-5.2098	848.78	524.61	210.36	685.78	1525.6	-9.8955	783.56	818.98	215.95	724.61	710.79	-162.72	652.33	1013.6	312.3	793.63	710.18	-141.38	583.75	1301.8	-7.7202	701.82	515.81	-132.23	723.12	115.03	158.92	793.01	1048.1	-132.5	818.32	1440.7	-6.9326	581.45	1033.5	-27.014	697.76	1311.9	252.13	605.6	1442	117.38	837.89	636.63	215.91	625.83	1147.7	205.47	761.99	1479.8	-173.31	568.92	30.642	-36.391	642.26	1162.9	283.08	718.38	521.59	-3.3173	735.24	375.08	-55.48	741.01	882.82	279.01	814.6	727.98	221.09	688.8	291.22	-121.86	722	21.611	-123.19	844.87	307.85	137.93	758.39	1479.5	155.51	878.77	534.97	81.411	692.44	193.9	-47.695	776.48	131.42	88.633	714.99	287.68	-50.486	626.05	71.287	-82.897	827.57	30.836	-59.638	884.79	1700.8	-52.406	676.93	878.68	319.13	878.18	394.57	149.18	734.27	802.15	-178.86	659.35	91.7	-3.7158	889.26	1704.4	23.999	673.24	88.84	98.297	775.08	39.689	-41.697	796.58	1054.1	150.43
718	3.59	735.21	843.37	332.91	761.47	1311.2	-274.79	976.16	881.77	-286.64	831.4	1015.7	-310.29	895.22	897.58	-290.69	822.78	221.71	129.11	711.18	1652.9	-83.075	770.13	1155.6	-308.1	916.76	50.844	165.58	720.67	619.77	-145.96	884.43	746.52	188.78	820.3	42.571	201.05	949.52	927.85	-234.64	727.89	1135.6	-245.71	818.92	310.47	198.22	876.33	50.248	135.52	720.04	1662.2	58.674	588.2	1035.1	51.305	871.2	1267	-5.2216	855.43	524.63	209.71	690.86	1525.4	-9.9077	788.77	818.88	215.92	727.33	710.67	-162.58	654.84	1013.7	312.01	796.36	709.55	-141.33	588.6	1301.7	-7.5886	703.25	515.76	-132.19	739.77	111.65	159.39	797.38	1047.7	-132.41	823.29	1440.3	-6.916	585.97	1033.4	-26.785	701.91	1311.9	252.13	610.61	1442	117.3	843.76	636.74	215.42	629.41	1148	205.13	767.03	1479.5	-173.26	568.95	30.721	-36.349	645.71	1163	282.8	720.01	521.45	-3.2744	736.2	374.88	-55.456	742.92	882.46	278.98	820.15	728	220.73	689.47	291.17	-121.82	721.99	21.605	-123.23	856.48	307.47	137.76	763.45	1479.3	155.56	884.45	535.12	80.526	692.86	193.83	-47.69	792.75	129.17	88.969	715.68	287.54	-50.459	626.08	71.386	-82.873	827.59	30.809	-59.628	889.82	1700.5	-52.494	678.65	878.64	318.84	887.54	395.02	148.72	737.59	801.99	-178.75	659.42	91.717	-3.6977	894.27	1704	23.914	690.63	83.806	98.857	775.08	39.684	-41.713	801.26	1053.6	150.52
719	3.595	736.79	842.99	332.82	767.13	1311.1	-274.88	986.06	884.21	-286.59	839.76	1016.3	-310.36	904.91	898.91	-290.36	836.61	220.46	129.25	716.21	1652.5	-83.119	776.91	1155.6	-308.44	935.04	52.144	166.26	722.81	619.68	-145.92	889.66	746.63	188.08	838.81	41.749	201.87	958.99	930.07	-234.62	734.87	1135.2	-246.01	830.39	309.42	198.07	894.59	50.501	136.23	725.09	1661.8	58.641	592.83	1034.9	51.532	876.02	1266.6	-5.2097	861.93	524.57	209.04	695.94	1525.1	-9.8982	793.93	818.71	215.88	730.07	710.54	-162.44	657.46	1013.9	311.78	799.12	708.92	-141.27	593.45	1301.6	-7.4434	704.71	515.7	-132.15	756.48	108.41	159.92	801.75	1047.2	-132.28	828.26	1439.9	-6.8791	590.51	1033.2	-26.546	706.13	1311.8	252.16	615.64	1441.9	117.24	849.48	636.75	214.91	633.06	1148.2	204.84	772.09	1479.2	-173.18	568.99	30.805	-36.308	649.23	1163.2	282.57	721.66	521.31	-3.2318	737.18	374.67	-55.432	744.93	882.09	278.98	825.6	727.93	220.36	690.16	291.11	-121.78	721.98	21.598	-123.26	868.01	307.14	137.58	768.52	1479	155.63	890	535.16	79.64	693.29	193.76	-47.683	809	127.05	89.348	716.39	287.39	-50.431	626.11	71.49	-82.849	827.61	30.782	-59.619	894.85	1700.2	-52.562	680.49	878.61	318.62	896.77	395.45	148.24	740.93	801.81	-178.61	659.5	91.736	-3.679	899.29	1703.7	23.849	708.1	78.938	99.518	775.07	39.68	-41.731	805.95	1052.9	150.63
720	3.6	738.5	842.6	332.77	772.78	1311	-274.95	995.85	886.64	-286.51	848.04	1016.9	-310.4	914.5	900.24	-290.01	850.39	219.32	129.41	721.24	1652.1	-83.14	783.65	1155.5	-308.78	953.25	53.642	166.85	724.98	619.59	-145.87	894.8	746.61	187.37	857.33	41.11	202.69	968.35	932.28	-234.57	741.81	1134.8	-246.28	841.83	308.42	197.93	912.8	50.948	136.88	730.15	1661.4	58.629	597.48	1034.6	51.777	880.85	1266.1	-5.1744	868.27	524.43	208.35	701.03	1524.8	-9.8669	799.04	818.48	215.83	732.84	710.4	-162.28	660.17	1014	311.59	801.9	708.29	-141.19	598.3	1301.4	-7.2845	706.21	515.64	-132.1	773.25	105.32	160.51	806.12	1046.7	-132.11	833.25	1439.5	-6.8225	595.05	1033	-26.297	710.41	1311.7	252.21	620.69	1441.8	117.22	855.05	636.66	214.39	636.77	1148.5	204.61	777.15	1478.8	-173.09	569.04	30.895	-36.27	652.83	1163.3	282.39	723.34	521.19	-3.188	738.18	374.46	-55.406	747.04	881.72	279.02	830.95	727.78	219.98	690.87	291.06	-121.74	721.98	21.591	-123.29	879.46	306.86	137.38	773.62	1478.7	155.72	895.42	535.1	78.759	693.73	193.69	-47.672	825.21	125.09	89.767	717.12	287.24	-50.4	626.15	71.599	-82.827	827.63	30.756	-59.613	899.89	1699.8	-52.609	682.46	878.57	318.47	905.87	395.88	147.72	744.29	801.62	-178.46	659.58	91.758	-3.6602	904.33	1703.3	23.803	725.63	74.254	100.28	775.06	39.678	-41.752	810.65	1052.3	150.78
721	3.605	740.33	842.22	332.76	778.41	1310.8	-275	1005.5	889.05	-286.4	856.24	1017.5	-310.43	923.99	901.56	-289.63	864.09	218.29	129.56	726.29	1651.6	-83.138	790.32	1155.5	-309.09	971.38	55.339	167.34	727.19	619.49	-145.81	899.85	746.46	186.66	875.85	40.659	203.47	977.6	934.49	-234.5	748.69	1134.4	-246.53	853.23	307.46	197.77	930.91	51.594	137.47	735.22	1661	58.64	602.15	1034.3	52.04	885.69	1265.6	-5.1161	874.48	524.21	207.65	706.12	1524.5	-9.8136	804.1	818.17	215.76	735.65	710.25	-162.11	663	1014.1	311.46	804.71	707.66	-141.1	603.16	1301.2	-7.1116	707.74	515.57	-132.06	790.04	102.41	161.16	810.49	1046.1	-131.92	838.24	1439	-6.7468	599.6	1032.8	-26.035	714.76	1311.6	252.29	625.76	1441.7	117.23	860.47	636.47	213.86	640.54	1148.7	204.43	782.22	1478.4	-172.97	569.08	30.993	-36.235	656.52	1163.4	282.27	725.04	521.09	-3.1416	739.21	374.24	-55.376	749.26	881.33	279.1	836.19	727.54	219.58	691.61	291.01	-121.7	721.97	21.583	-123.32	890.81	306.62	137.17	778.73	1478.4	155.81	900.71	534.92	77.89	694.18	193.61	-47.658	841.35	123.28	90.218	717.87	287.08	-50.366	626.19	71.713	-82.807	827.65	30.731	-59.611	904.95	1699.4	-52.634	684.55	878.53	318.38	914.84	396.3	147.17	747.67	801.42	-178.29	659.67	91.783	-3.6414	909.38	1702.9	23.779	743.18	69.773	101.13	775.06	39.679	-41.776	815.37	1051.7	150.94
